<?xml version="1.0" encoding="UTF-8"?>
<svg width="72px" height="72px" viewBox="0 0 72 72" version="1.1" xmlns="http://www.w3.org/2000/svg" xmlns:xlink="http://www.w3.org/1999/xlink">
    <!-- Generator: Sketch 41.2 (35397) - http://www.bohemiancoding.com/sketch -->
    <title>cottage</title>
    <desc>Created with Sketch.</desc>
    <defs></defs>
    <g id="Page-1" stroke="none" stroke-width="1" fill="none" fill-rule="evenodd">
        <g id="Large-Devices-(-≥-1200px-)" transform="translate(-159.000000, -849.000000)" fill="#000000">
            <g id="Tabs" transform="translate(112.000000, 820.000000)">
                <g id="accomodation" transform="translate(0.000000, 29.000000)">
                    <g id="cottage" transform="translate(47.000000, 0.000000)">
                        <g id="Layer_1">
                            <g id="Group">
                                <path d="M44.3136842,16.7677193 C44.976,16.7677193 45.5112982,16.2311579 45.5112982,15.5701053 C45.5112982,14.9090526 44.976,14.3724912 44.3136842,14.3724912 L41.9183158,14.3724912 C41.256,14.3724912 40.7207018,14.9090526 40.7207018,15.5701053 C40.7207018,16.2311579 41.256,16.7677193 41.9183158,16.7677193 L44.3136842,16.7677193 Z" id="Shape"></path>
                                <path d="M26.3487719,29.9420351 L26.3487719,37.128 C26.3487719,37.7890526 26.8853333,38.325614 27.546386,38.325614 L44.3136842,38.325614 C44.976,38.325614 45.5112982,37.7890526 45.5112982,37.128 L45.5112982,29.9420351 C45.5112982,24.6590877 41.2129123,20.3607018 35.9299649,20.3607018 C30.6472982,20.3607018 26.3487719,24.6590877 26.3487719,29.9420351 Z M34.7324912,35.9302456 L28.7441404,35.9302456 L28.7441404,31.1396491 L34.7324912,31.1396491 L34.7324912,35.9302456 Z M34.7324912,28.7442807 L28.8519298,28.7442807 C29.3597193,25.7417544 31.7299649,23.3715088 34.7324912,22.8637193 L34.7324912,28.7442807 Z M37.1277193,22.8638596 C40.1302456,23.3716491 42.5004912,25.7418947 43.0082807,28.7444211 L37.1277193,28.7444211 L37.1277193,22.8638596 Z M37.1277193,31.1396491 L43.1160702,31.1396491 L43.1160702,35.9302456 L37.1277193,35.9302456 L37.1277193,31.1396491 L37.1277193,31.1396491 Z" id="Shape"></path>
                                <path d="M63.4763509,69.4648421 L13.1745965,69.4648421 C12.5135439,69.4648421 11.9769825,70.0014035 11.9769825,70.6624561 C11.9769825,71.3235088 12.5135439,71.8600702 13.1745965,71.8600702 L63.4763509,71.8600702 C64.1386667,71.8600702 64.6739649,71.3235088 64.6739649,70.6624561 C64.6739649,70.0014035 64.1386667,69.4648421 63.4763509,69.4648421 Z" id="Shape"></path>
                                <path d="M10.7792281,11.9771228 L11.9768421,11.9771228 L11.9768421,17.9654737 C11.9768421,18.6265263 12.5134035,19.1630877 13.1744561,19.1630877 C13.8355088,19.1630877 14.3720702,18.6265263 14.3720702,17.9654737 L14.3720702,10.7795088 C14.3720702,10.1184561 13.8355088,9.58189474 13.1744561,9.58189474 L11.9768421,9.58189474 L11.9768421,7.18638596 L19.162807,7.18638596 L19.162807,9.58175439 L17.965193,9.58175439 C17.3041404,9.58175439 16.7675789,10.1183158 16.7675789,10.7793684 L16.7675789,13.1747368 C16.7675789,13.8357895 17.3041404,14.3723509 17.965193,14.3723509 C18.6262456,14.3723509 19.162807,13.8357895 19.162807,13.1747368 L19.162807,11.9771228 L20.3604211,11.9771228 C21.0214737,11.9771228 21.5580351,11.4405614 21.5580351,10.7795088 L21.5580351,5.98877193 C21.5580351,5.3277193 21.0214737,4.79115789 20.3604211,4.79115789 L10.7792281,4.79115789 C10.1181754,4.79115789 9.58161404,5.3277193 9.58161404,5.98877193 L9.58161404,10.7793684 C9.58161404,11.4405614 10.1181754,11.9771228 10.7792281,11.9771228 Z" id="Shape"></path>
                                <path d="M13.1745965,67.0694737 L15.5699649,67.0694737 C16.2310175,67.0694737 16.7675789,66.5329123 16.7675789,65.8718596 C16.7675789,65.210807 16.2310175,64.6742456 15.5699649,64.6742456 L13.1745965,64.6742456 C12.5135439,64.6742456 11.9769825,65.210807 11.9769825,65.8718596 C11.9768421,66.5329123 12.5134035,67.0694737 13.1745965,67.0694737 Z" id="Shape"></path>
                                <path d="M25.1511579,21.5583158 L22.7557895,21.5583158 C22.0947368,21.5583158 21.5581754,22.0948772 21.5581754,22.7559298 C21.5581754,23.4169825 22.0947368,23.9535439 22.7557895,23.9535439 L25.1511579,23.9535439 C25.8122105,23.9535439 26.3487719,23.4169825 26.3487719,22.7559298 C26.3487719,22.0948772 25.8123509,21.5583158 25.1511579,21.5583158 Z" id="Shape"></path>
                                <path d="M8.38385965,69.4648421 L1.19789474,69.4648421 C0.536842105,69.4648421 0.000280701754,70.0014035 0.000280701754,70.6624561 C0.000280701754,71.3235088 0.536842105,71.8600702 1.19789474,71.8600702 L8.38385965,71.8600702 C9.04491228,71.8600702 9.58147368,71.3235088 9.58147368,70.6624561 C9.58147368,70.0014035 9.04505263,69.4648421 8.38385965,69.4648421 Z" id="Shape"></path>
                                <path d="M49.1044211,59.8835088 L56.290386,59.8835088 C56.9527018,59.8835088 57.488,59.3469474 57.488,58.6858947 C57.488,58.0248421 56.9527018,57.4882807 56.290386,57.4882807 L49.1044211,57.4882807 C48.4421053,57.4882807 47.906807,58.0248421 47.906807,58.6858947 C47.906807,59.3469474 48.4421053,59.8835088 49.1044211,59.8835088 Z" id="Shape"></path>
                                <path d="M58.685614,52.6975439 C59.3479298,52.6975439 59.8832281,52.1609825 59.8832281,51.4999298 C59.8832281,50.8388772 59.3479298,50.3023158 58.685614,50.3023158 L56.2902456,50.3023158 C55.6279298,50.3023158 55.0926316,50.8388772 55.0926316,51.4999298 C55.0926316,52.1609825 55.6279298,52.6975439 56.2902456,52.6975439 L58.685614,52.6975439 Z" id="Shape"></path>
                                <path d="M23.9535439,58.6858947 C23.9535439,58.0248421 23.4169825,57.4882807 22.7559298,57.4882807 L20.3605614,57.4882807 C19.6995088,57.4882807 19.1629474,58.0248421 19.1629474,58.6858947 C19.1629474,59.3469474 19.6995088,59.8835088 20.3605614,59.8835088 L22.7559298,59.8835088 C23.4169825,59.8835088 23.9535439,59.3469474 23.9535439,58.6858947 Z" id="Shape"></path>
                                <path d="M14.3722105,29.9420351 C14.3722105,30.6030877 14.9087719,31.1396491 15.5698246,31.1396491 L22.7557895,31.1396491 C23.4168421,31.1396491 23.9534035,30.6030877 23.9534035,29.9420351 C23.9534035,29.2809825 23.4168421,28.7444211 22.7557895,28.7444211 L15.5698246,28.7444211 C14.9087719,28.7442807 14.3722105,29.2808421 14.3722105,29.9420351 Z" id="Shape"></path>
                                <path d="M70.6623158,69.4648421 L68.2669474,69.4648421 C67.6046316,69.4648421 67.0693333,70.0014035 67.0693333,70.6624561 C67.0693333,71.3235088 67.6046316,71.8600702 68.2669474,71.8600702 L70.6623158,71.8600702 C71.3246316,71.8600702 71.8599298,71.3235088 71.8599298,70.6624561 C71.8599298,70.0014035 71.3246316,69.4648421 70.6623158,69.4648421 Z" id="Shape"></path>
                                <path d="M70.6623158,37.128 C70.9689825,37.128 71.2755088,37.0106667 71.5090526,36.7771228 C71.9774035,36.3087719 71.9774035,35.5518596 71.5090526,35.0836491 L64.3243509,27.8989474 C64.3230877,27.8976842 64.3230877,27.8976842 64.3219649,27.8976842 L58.336,21.9105965 L58.333614,21.9082105 L36.7768421,0.351298246 C36.3084912,-0.116912281 35.5515789,-0.116912281 35.0833684,0.351298246 L20.7114386,14.7219649 L20.7114386,14.7232281 L0.351157895,35.0835088 C-0.117052632,35.5518596 -0.117052632,36.3087719 0.351157895,36.7769825 C0.819508772,37.2453333 1.57642105,37.2453333 2.04463158,36.7769825 L7.18624561,31.6353684 L7.18624561,65.8717193 C7.18624561,66.5327719 7.72280702,67.0693333 8.38385965,67.0693333 C9.04491228,67.0693333 9.58147368,66.5327719 9.58147368,65.8717193 L9.58147368,59.8835088 L15.5698246,59.8835088 C16.2308772,59.8835088 16.7674386,59.3469474 16.7674386,58.6858947 C16.7674386,58.0248421 16.2308772,57.4882807 15.5698246,57.4882807 L9.58161404,57.4882807 L9.58161404,45.5115789 L10.7792281,45.5115789 C11.4402807,45.5115789 11.9768421,44.9750175 11.9768421,44.3139649 C11.9768421,43.6529123 11.4402807,43.1163509 10.7792281,43.1163509 L9.58161404,43.1163509 L9.58161404,38.325614 L20.3605614,38.325614 C21.021614,38.325614 21.5581754,37.7890526 21.5581754,37.128 C21.5581754,36.4669474 21.021614,35.930386 20.3605614,35.930386 L9.58161404,35.930386 L9.58161404,29.2402807 L22.0540351,16.7678596 L29.9418947,16.7678596 C30.6029474,16.7678596 31.1395088,16.2312982 31.1395088,15.5702456 C31.1395088,14.909193 30.6029474,14.3726316 29.9418947,14.3726316 L24.4494035,14.3726316 L35.9302456,2.89178947 L54.5970526,21.5584561 L51.4999298,21.5584561 C50.837614,21.5584561 50.3023158,22.0950175 50.3023158,22.7560702 C50.3023158,23.4171228 50.837614,23.9536842 51.4999298,23.9536842 L56.9924211,23.9536842 L61.7830175,28.7442807 L56.2905263,28.7442807 C55.6282105,28.7442807 55.0929123,29.2808421 55.0929123,29.9418947 C55.0929123,30.6029474 55.6282105,31.1395088 56.2905263,31.1395088 L62.2788772,31.1395088 L62.2788772,35.9301053 L61.0812632,35.9301053 C60.4189474,35.9301053 59.8836491,36.4666667 59.8836491,37.1277193 C59.8836491,37.7887719 60.4189474,38.3253333 61.0812632,38.3253333 L62.2788772,38.3253333 L62.2788772,43.1159298 L56.2905263,43.1159298 C55.6282105,43.1159298 55.0929123,43.6524912 55.0929123,44.3135439 C55.0929123,44.9745965 55.6282105,45.5111579 56.2905263,45.5111579 L62.2788772,45.5111579 L62.2788772,57.4877193 L61.0812632,57.4877193 C60.4189474,57.4877193 59.8836491,58.0242807 59.8836491,58.6853333 C59.8836491,59.346386 60.4189474,59.8829474 61.0812632,59.8829474 L62.2788772,59.8829474 L62.2788772,64.6735439 L53.8952982,64.6735439 C53.2329825,64.6735439 52.6976842,65.2101053 52.6976842,65.8711579 C52.6976842,66.5322105 53.2329825,67.0687719 53.8952982,67.0687719 L63.4766316,67.0687719 C64.1389474,67.0687719 64.6742456,66.5322105 64.6742456,65.8711579 L64.6742456,31.6355088 L69.8158596,36.7771228 C70.0491228,37.0105263 70.3556491,37.128 70.6623158,37.128 Z" id="Shape"></path>
                                <path d="M17.965193,52.6975439 L26.3487719,52.6975439 L26.3487719,64.6741053 L22.7557895,64.6741053 C22.0947368,64.6741053 21.5581754,65.2106667 21.5581754,65.8717193 C21.5581754,66.5327719 22.0947368,67.0693333 22.7557895,67.0693333 L27.546386,67.0693333 C28.2074386,67.0693333 28.744,66.5327719 28.744,65.8717193 L28.744,45.5115789 L43.1159298,45.5115789 L43.1159298,55.0929123 L41.9183158,55.0929123 C41.256,55.0929123 40.7207018,55.6294737 40.7207018,56.2905263 C40.7207018,56.9515789 41.256,57.4881404 41.9183158,57.4881404 L43.1159298,57.4881404 L43.1159298,65.8717193 C43.1159298,66.5327719 43.6512281,67.0693333 44.3135439,67.0693333 C44.9758596,67.0693333 45.5111579,66.5327719 45.5111579,65.8717193 L45.5111579,52.6975439 L46.7087719,52.6975439 C47.3710877,52.6975439 47.906386,52.1609825 47.906386,51.4999298 C47.906386,50.8388772 47.3710877,50.3023158 46.7087719,50.3023158 L45.5111579,50.3023158 L45.5111579,44.3139649 C45.5111579,43.6529123 44.9758596,43.1163509 44.3135439,43.1163509 L27.5465263,43.1163509 C26.8854737,43.1163509 26.3489123,43.6529123 26.3489123,44.3139649 L26.3489123,50.3023158 L17.9653333,50.3023158 C17.3042807,50.3023158 16.7677193,50.8388772 16.7677193,51.4999298 C16.7677193,52.1609825 17.3041404,52.6975439 17.965193,52.6975439 Z" id="Shape"></path>
                                <path d="M16.7675789,44.3139649 C16.7675789,44.9750175 17.3041404,45.5115789 17.965193,45.5115789 L22.7557895,45.5115789 C23.4168421,45.5115789 23.9534035,44.9750175 23.9534035,44.3139649 C23.9534035,43.6529123 23.4168421,43.1163509 22.7557895,43.1163509 L17.965193,43.1163509 C17.3041404,43.1162105 16.7675789,43.6527719 16.7675789,44.3139649 Z" id="Shape"></path>
                                <path d="M49.1044211,45.5115789 L51.4997895,45.5115789 C52.1621053,45.5115789 52.6974035,44.9750175 52.6974035,44.3139649 C52.6974035,43.6529123 52.1621053,43.1163509 51.4997895,43.1163509 L49.1044211,43.1163509 C48.4421053,43.1163509 47.906807,43.6529123 47.906807,44.3139649 C47.906807,44.9750175 48.4421053,45.5115789 49.1044211,45.5115789 Z" id="Shape"></path>
                                <path d="M50.3020351,37.128 C50.3020351,37.7890526 50.8373333,38.325614 51.4996491,38.325614 L56.2902456,38.325614 C56.9525614,38.325614 57.4878596,37.7890526 57.4878596,37.128 C57.4878596,36.4669474 56.9525614,35.930386 56.2902456,35.930386 L51.4996491,35.930386 C50.8374737,35.9302456 50.3020351,36.466807 50.3020351,37.128 Z" id="Shape"></path>
                                <path d="M51.4996491,28.7442807 L49.1042807,28.7442807 C48.4419649,28.7442807 47.9066667,29.2808421 47.9066667,29.9418947 C47.9066667,30.6029474 48.4419649,31.1395088 49.1042807,31.1395088 L51.4996491,31.1395088 C52.1619649,31.1395088 52.6972632,30.6029474 52.6972632,29.9418947 C52.6974035,29.2808421 52.1619649,28.7442807 51.4996491,28.7442807 Z" id="Shape"></path>
                            </g>
                        </g>
                    </g>
                </g>
            </g>
        </g>
    </g>
</svg>