<?xml version="1.0" encoding="UTF-8"?>
<svg width="50px" height="57px" viewBox="0 0 50 57" version="1.1" xmlns="http://www.w3.org/2000/svg" xmlns:xlink="http://www.w3.org/1999/xlink">
    <!-- Generator: Sketch 41.2 (35397) - http://www.bohemiancoding.com/sketch -->
    <title>farmer</title>
    <desc>Created with Sketch.</desc>
    <defs></defs>
    <g id="Page-1" stroke="none" stroke-width="1" fill="none" fill-rule="evenodd">
        <g id="Large-Devices-(-≥-1200px-)" transform="translate(-366.000000, -860.000000)" fill="#000000">
            <g id="Tabs" transform="translate(112.000000, 820.000000)">
                <g id="tourist-attractions" transform="translate(177.000000, 0.000000)">
                    <g id="farmer" transform="translate(77.000000, 40.000000)">
                        <g id="Layer_1">
                            <path d="M34.6710177,41.2897053 C34.5473451,40.7123263 33.9475664,40.3717134 33.3870575,40.5577125 L31.2733407,41.2588707 L30.2924779,38.3286967 C30.1151549,37.7992215 29.5404867,37.5131199 29.0085177,37.6894281 L28.7732301,37.7675059 L25.4610619,27.8732133 C26.9060841,26.8840814 27.6315265,25.0062505 27.0283186,23.2041847 C26.8675885,22.7242652 26.4178097,22.4220855 25.9360619,22.424288 C25.7954646,24.4093795 24.3277655,26.0419648 22.3674779,26.4033911 L19.7756637,26.8804473 C20.5450221,27.9545948 21.8285398,28.6484848 23.2853982,28.5911104 L26.5986726,38.4888167 L26.3634956,38.5668945 C25.8316372,38.7433128 25.5441372,39.3155161 25.7213496,39.8451014 L26.7022124,42.7753854 L26.4077434,42.8729551 C26.281969,42.6111909 26.1137168,42.3645136 25.8971239,42.1466887 L16.8780973,33.0705058 C16.5277655,32.7178894 16.0853982,32.4695603 15.6009956,32.3531594 C15.6009956,32.3531594 5.38871681,30.3088213 4.48661504,30.1408825 C5.36028761,30.1021189 11.5172566,29.8286816 12.4231195,29.7884864 L12.4233407,29.7884864 L12.7191372,28.1213222 C11.5971239,28.2388243 9.78716814,27.4624516 9.16028761,26.3779525 C8.64867257,25.4932179 5.1420354,19.4272689 4.67190265,18.6143351 L11.0182522,25.3134959 C11.5400442,25.8494684 12.3007743,26.0863446 13.028208,25.9522139 C13.0284292,25.9522139 13.0285398,25.9522139 13.0288717,25.9521037 L21.9775442,24.304872 C23.2623894,24.0681059 24.0834071,22.779217 23.7161504,21.5040936 C23.4050885,20.4225678 22.306969,19.7225108 21.1637168,19.9330675 L13.5685841,21.3342827 L7.65774336,15.2628275 L14.2772124,19.2728754 C14.3497788,18.9490013 14.3022124,19.1982114 14.5379425,17.8693476 C14.8381637,16.1766348 13.7033186,14.5619997 12.0029867,14.2630136 L6.51261062,13.2976684 C4.81227876,12.9986823 3.19037611,14.1285524 2.89004425,15.8213754 C2.76836283,16.5067859 0.198672566,30.9920293 0.0815265487,31.652662 L0.0848451327,31.6507899 C-0.100331858,32.9918774 0.762168142,34.2805461 2.11216814,34.6045303 L13.6042035,37.3622503 L22.0870575,45.8990469 C22.8228982,46.6396294 23.9294248,46.8952267 24.9373894,46.5175021 C25.5088496,47.4135794 26.1897124,48.2987545 26.9173673,49.0947292 C28.0679204,47.9563796 29.5804204,47.180117 31.2668142,46.957777 C32.1325221,45.4451166 33.4254425,44.2380497 34.9591814,43.4677337 C34.911615,42.7049062 34.8159292,41.9666363 34.6710177,41.2897053 Z" id="Shape"></path>
                            <path d="M49.9012168,55.0908597 C49.3392699,53.1170008 47.5285398,51.7280094 45.4748894,51.6807663 C45.6827434,47.9541771 42.6918142,44.8070593 38.9420354,44.8070593 C36.1091814,44.8070593 33.649115,46.6020772 32.7558628,49.1963735 C29.205531,48.8708476 26.3216814,52.0802954 27.0838496,55.5765057 C27.184292,56.0373737 27.5939159,56.3660933 28.0675885,56.3660933 L48.9329646,56.3660933 C49.600885,56.3663135 50.0830752,55.7293575 49.9012168,55.0908597 Z" id="Shape"></path>
                            <path d="M11.9400442,43.9428078 L11.2923673,38.8774436 L5.71061947,37.4762284 L6.55132743,44.0518303 L3.84911504,52.9424546 C3.42057522,54.3525898 4.22134956,55.8416838 5.63783186,56.2685236 C7.05542035,56.6953634 8.5505531,55.8967457 8.97887168,54.4878218 L11.8466814,45.0524151 C11.9558628,44.6930812 11.9876106,44.3150262 11.9400442,43.9428078 Z" id="Shape"></path>
                            <path d="M18.4306416,2.28165489 C18.2923673,1.88609023 17.6457965,1.69722792 16.6448009,1.69722792 C15.8090708,1.69722792 14.7244469,1.83058783 13.485177,2.08376244 C13.1278761,1.58380041 12.685177,1.16136554 12.184292,0.830553657 C10.9314159,0.00308346624 9.31869469,-0.253174603 7.78915929,0.276741095 C6.26073009,0.806436546 5.15696903,2.0030417 4.69048673,3.42473988 C4.50365044,3.99430014 4.41980088,4.59976077 4.45154867,5.21348067 C1.96880531,6.46107314 0.444469027,7.70051644 0.698340708,8.42645249 C0.836504425,8.82201716 1.48318584,9.01087947 2.4840708,9.01087947 C4.25365044,9.01087947 7.12986726,8.42006531 10.2576327,7.33622693 C15.1543142,5.63932938 18.8136062,3.37628541 18.4306416,2.28165489 Z" id="Shape"></path>
                            <path d="M19.0869469,7.76681097 C19.0192478,7.4212425 18.6825221,7.19559885 18.3357301,7.26310473 L14.9551991,7.91966279 C14.9574115,7.63245994 14.9337389,7.34944179 14.8838496,7.07336143 C13.6423673,7.67001215 12.2370575,8.24584947 10.7553097,8.7592466 C9.1875,9.3025974 7.64126106,9.73725602 6.23573009,10.0386648 C6.88030973,11.2524493 8.05973451,12.1686793 9.52300885,12.4259285 C11.8439159,12.8340472 14.064823,11.4430736 14.7454646,9.25942888 L18.5809735,8.51455153 C18.928208,8.44726589 19.154646,8.11248956 19.0869469,7.76681097 Z" id="Shape"></path>
                        </g>
                    </g>
                </g>
            </g>
        </g>
    </g>
</svg>