<?xml version="1.0" encoding="UTF-8"?>
<svg width="64px" height="64px" viewBox="0 0 64 64" version="1.1" xmlns="http://www.w3.org/2000/svg" xmlns:xlink="http://www.w3.org/1999/xlink">
    <!-- Generator: Sketch 41.2 (35397) - http://www.bohemiancoding.com/sketch -->
    <title>flowers</title>
    <desc>Created with Sketch.</desc>
    <defs></defs>
    <g id="Page-1" stroke="none" stroke-width="1" fill="none" fill-rule="evenodd">
        <g id="Large-Devices-(-≥-1200px-)" transform="translate(-552.000000, -858.000000)" fill="#000000">
            <g id="Tabs" transform="translate(112.000000, 820.000000)">
                <g id="restaurants" transform="translate(390.000000, 38.000000)">
                    <g id="flowers" transform="translate(50.000000, 0.000000)">
                        <g id="Capa_1">
                            <path d="M64,39.7408207 C64,37.9496501 62.5427905,36.4924406 60.7516199,36.4924406 L54.0475162,36.4924406 L54.0475162,32.9450713 C54.3346177,33.0047862 54.6260043,33.0356112 54.9178056,33.0356112 C56.1132095,33.0356112 57.3105486,32.5451749 58.1977019,31.6580216 C59.3219179,30.5339438 59.8088985,28.912933 59.4691317,27.4272484 C59.3802505,27.0395162 59.0775292,26.7366566 58.689797,26.6479136 C57.2038359,26.3080086 55.5828251,26.7949892 54.4590238,27.919067 C54.3102894,28.0678013 54.173581,28.2256587 54.0475162,28.3902894 L54.0475162,25.1255983 C55.3316631,24.6918359 56.2591793,23.476527 56.2591793,22.0477927 C56.2591793,21.4679222 56.0888812,20.3962333 55.7963888,19.3040864 C56.8897797,19.5965788 57.9639568,19.7670151 58.5399568,19.7670151 C60.3311274,19.7670151 61.7883369,18.3098056 61.7883369,16.518635 C61.7883369,14.7274644 60.3311274,13.2699784 58.5399568,13.2699784 C57.9600864,13.2699784 56.8883974,13.4402765 55.7962505,13.7327689 C56.088743,12.6395162 56.2591793,11.5653391 56.2591793,10.9892009 C56.2591793,9.19803024 54.8019698,7.74082073 53.0107991,7.74082073 C51.2196285,7.74082073 49.762419,9.19803024 49.762419,10.9892009 C49.762419,11.5690713 49.9327171,12.6407603 50.2252095,13.7329071 C49.1318186,13.4405529 48.0576415,13.2699784 47.4816415,13.2699784 C45.6904708,13.2699784 44.2332613,14.7271879 44.2332613,16.5183585 C44.2332613,18.3095292 45.6904708,19.7667387 47.4816415,19.7667387 C48.0615119,19.7667387 49.1332009,19.5964406 50.2253477,19.3039482 C49.9328553,20.3972009 49.762419,21.471378 49.762419,22.0475162 C49.762419,23.4762505 50.6899352,24.6915594 51.9740821,25.1253218 L51.9740821,28.390013 C51.8481555,28.2253823 51.7114471,28.0676631 51.5627127,27.9189287 C50.4384968,26.794851 48.8173477,26.3074557 47.3318013,26.6477754 C46.9440691,26.7365184 46.6413477,27.039378 46.5524665,27.4271102 C46.2126998,28.9127948 46.6996803,30.5339438 47.8237581,31.6578834 C48.7111879,32.5451749 49.9081123,33.0356112 51.1037927,33.0356112 C51.3954557,33.0356112 51.6869806,33.0049244 51.9740821,32.9450713 L51.9740821,36.4924406 L33.0367171,36.4924406 L33.0367171,34.6411404 L35.8357149,31.8421425 C36.1963542,31.8945313 36.5596199,31.9231447 36.9234384,31.9231447 C39.041797,31.9231447 41.1674816,31.0499525 42.7467473,29.4706868 C44.7448467,27.4724492 45.6126479,24.5996371 45.0114903,21.9734255 C44.9227473,21.5856933 44.6200259,21.2828337 44.2321555,21.1940907 C41.6060821,20.5930713 38.7329935,21.4608726 36.7348942,23.4589719 C34.8815205,25.3124838 34.0015551,27.9182376 34.3634384,30.3820302 L33.0367171,31.7087516 L33.0367171,24.0194903 C34.3208639,23.5857279 35.2483801,22.370419 35.2483801,20.9416847 C35.2483801,20.3784017 35.0726911,18.6873089 34.7691404,16.8915767 C36.1721641,18.0521469 37.5485097,19.0494687 38.037149,19.3314557 C38.5473521,19.6260216 39.1051058,19.7660475 39.6558099,19.7660475 C40.7791965,19.7660475 41.8735551,19.1834125 42.4745745,18.1424104 C43.3701598,16.5913434 42.8367343,14.6007084 41.2855292,13.7051231 C40.797581,13.4234125 39.24527,12.7299179 37.5382808,12.0950324 C39.24527,11.4600086 40.7977192,10.766514 41.2855292,10.4849417 C42.8367343,9.58935637 43.3700216,7.59872138 42.4745745,6.0475162 C41.578851,4.49631102 39.588216,3.9627473 38.037149,4.85860907 C37.5485097,5.14073434 36.1721641,6.13791793 34.7692786,7.29834989 C35.0728294,5.50317063 35.2483801,3.81263067 35.2483801,3.24838013 C35.2483801,1.4572095 33.7911706,0 32,0 C30.2088294,0 28.7516199,1.4572095 28.7516199,3.24838013 C28.7516199,3.81166307 28.9273089,5.50275594 29.2308596,7.29848812 C27.8278359,6.13791793 26.4514903,5.14059611 25.962851,4.85860907 C24.411784,3.96302376 22.421149,4.49631102 21.5254255,6.04765443 C20.6298402,7.59872138 21.1632657,9.58935637 22.7144708,10.4849417 C23.202419,10.7666523 24.75473,11.4601469 26.4617192,12.0950324 C24.75473,12.7300562 23.2022808,13.4235508 22.7144708,13.7051231 C21.1632657,14.6007084 20.6299784,16.5913434 21.5254255,18.1425486 C22.1265832,19.1835508 23.2206652,19.7660475 24.3441901,19.7660475 C24.8947559,19.7660475 25.4527862,19.6260216 25.962851,19.3314557 C26.4514903,19.0493305 27.8278359,18.0521469 29.2307214,16.8917149 C28.9271706,18.6868942 28.7516199,20.3774341 28.7516199,20.9416847 C28.7516199,22.370419 29.6791361,23.5857279 30.9632829,24.0194903 L30.9632829,31.7087516 L29.6365616,30.3820302 C29.9984449,27.9183758 29.1184795,25.3124838 27.2649676,23.4589719 C25.2670065,21.4607343 22.3940562,20.5932095 19.7678445,21.1940907 C19.3799741,21.2828337 19.0772527,21.5856933 18.9885097,21.9734255 C18.3872138,24.5997754 19.2551533,27.4724492 21.2532527,29.4706868 C22.8326566,31.0499525 24.9579266,31.9231447 27.0765616,31.9231447 C27.4402419,31.9231447 27.8036458,31.8945313 28.1642851,31.8421425 L30.9632829,34.6411404 L30.9632829,36.4924406 L12.0259179,36.4924406 L12.0259179,32.9450713 C12.3130194,33.0047862 12.604406,33.0356112 12.8962073,33.0356112 C14.0916112,33.0356112 15.2889503,32.5451749 16.1761037,31.6580216 C17.3003197,30.5339438 17.7873002,28.912933 17.4475335,27.4272484 C17.3586523,27.0395162 17.0559309,26.7366566 16.6681987,26.6479136 C15.1823758,26.3080086 13.5612268,26.7949892 12.4374255,27.919067 C12.2886911,28.0678013 12.1519827,28.2256587 12.0259179,28.3902894 L12.0259179,25.1255983 C13.3100648,24.6918359 14.237581,23.476527 14.237581,22.0477927 C14.237581,21.4679222 14.0672829,20.3962333 13.7747905,19.3040864 C14.8681814,19.5965788 15.9423585,19.7670151 16.5183585,19.7670151 C18.3095292,19.7670151 19.7667387,18.3098056 19.7667387,16.518635 C19.7667387,14.7274644 18.3095292,13.2699784 16.5183585,13.2699784 C15.9384881,13.2699784 14.8667991,13.4402765 13.7746523,13.7327689 C14.0671447,12.6395162 14.237581,11.5653391 14.237581,10.9892009 C14.237581,9.19803024 12.7803715,7.74082073 10.9892009,7.74082073 C9.19803024,7.74082073 7.74082073,9.19803024 7.74082073,10.9892009 C7.74082073,11.5690713 7.91111879,12.6407603 8.20361123,13.7329071 C7.1102203,13.4405529 6.0360432,13.2699784 5.4600432,13.2699784 C3.66887257,13.2699784 2.21166307,14.7271879 2.21166307,16.5183585 C2.21166307,18.3095292 3.66887257,19.7667387 5.4600432,19.7667387 C6.03991361,19.7667387 7.11160259,19.5964406 8.20374946,19.3039482 C7.91125702,20.3972009 7.74082073,21.471378 7.74082073,22.0475162 C7.74082073,23.4762505 8.66833693,24.6915594 9.9524838,25.1253218 L9.9524838,28.390013 C9.82655724,28.2253823 9.68984881,28.0676631 9.54111447,27.9189287 C8.41689849,26.794851 6.79602592,26.3074557 5.31020302,26.6477754 C4.92247084,26.7365184 4.61974946,27.039378 4.53086825,27.4271102 C4.19110151,28.9127948 4.67808207,30.5339438 5.80215983,31.6578834 C6.68958963,32.5451749 7.88651404,33.0356112 9.08219438,33.0356112 C9.37385745,33.0356112 9.66538229,33.0049244 9.9524838,32.9450713 L9.9524838,36.4924406 L3.24838013,36.4924406 C1.4572095,36.4924406 0,37.9496501 0,39.7408207 C0,41.1905659 0.9547473,42.4212181 2.26833693,42.8378402 L3.18203024,56.5444838 C3.27478186,57.9360346 4.24570194,59.0796026 5.52901944,59.4495032 L5.52901944,61.8574514 C5.52901944,63.0388942 6.49012527,64 7.67156803,64 L56.3281555,64 C57.5095983,64 58.4707041,63.0388942 58.4707041,61.8574514 L58.4707041,59.4495032 C59.7541598,59.0796026 60.7249417,57.9360346 60.8176933,56.5444838 L61.7313866,42.8378402 C63.0452527,42.4212181 64,41.1905659 64,39.7408207 Z M55.9250799,29.3849849 C56.3602246,28.9498402 56.9211577,28.6845788 57.4907991,28.6258315 C57.4319136,29.195473 57.1667905,29.756406 56.7315076,30.191689 C56.2963629,30.6268337 55.7354298,30.892095 55.1657883,30.9508423 C55.2246739,30.3812009 55.489797,29.8201296 55.9250799,29.3849849 Z M49.2899525,30.1915508 C48.8548078,29.756406 48.5896847,29.195473 48.5307991,28.6258315 C49.1004406,28.6845788 49.6613737,28.9497019 50.0966566,29.3849849 C50.5318013,29.8201296 50.7969244,30.3810626 50.8558099,30.9507041 C50.2861685,30.8919568 49.7252354,30.6268337 49.2899525,30.1915508 Z M51.8358531,16.5183585 C51.8358531,15.8704795 52.3629201,15.3434125 53.0107991,15.3434125 C53.6586782,15.3434125 54.1857451,15.8704795 54.1857451,16.5183585 C54.1857451,17.1662376 53.6586782,17.6933045 53.0107991,17.6933045 C52.3629201,17.6933045 51.8358531,17.1662376 51.8358531,16.5183585 Z M59.7149028,16.5183585 C59.7149028,17.1662376 59.1878359,17.6933045 58.5399568,17.6933045 C58.1292786,17.6933045 57.1561469,17.5326825 56.1733391,17.2576069 C56.2289071,17.0199914 56.2591793,16.7726998 56.2591793,16.5183585 C56.2591793,16.263879 56.2287689,16.0164492 56.1732009,15.7786955 C57.155041,15.5036199 58.1256847,15.3434125 58.5399568,15.3434125 C59.1878359,15.3434125 59.7149028,15.8704795 59.7149028,16.5183585 Z M53.0107991,9.81425486 C53.6586782,9.81425486 54.1857451,10.3413218 54.1857451,10.9892009 C54.1857451,11.4000173 54.0251231,12.373149 53.7500475,13.3558186 C53.512432,13.3002505 53.2651404,13.2699784 53.0107991,13.2699784 C52.7563197,13.2699784 52.5088898,13.3003888 52.2711361,13.3559568 C51.9960605,12.3741166 51.8358531,11.4033348 51.8358531,10.9892009 C51.8358531,10.3413218 52.3629201,9.81425486 53.0107991,9.81425486 Z M46.3066955,16.5183585 C46.3066955,15.8704795 46.8337624,15.3434125 47.4816415,15.3434125 C47.8923197,15.3434125 48.8654514,15.5040346 49.8482592,15.7791102 C49.7926911,16.0167257 49.762419,16.2640173 49.762419,16.5183585 C49.762419,16.772838 49.7928294,17.0202678 49.8483974,17.2580216 C48.8666955,17.5330972 47.8959136,17.6933045 47.4816415,17.6933045 C46.8337624,17.6933045 46.3066955,17.1662376 46.3066955,16.5183585 Z M52.2715508,19.6808985 C52.5091663,19.7364665 52.7564579,19.7667387 53.0107991,19.7667387 C53.2652786,19.7667387 53.5127084,19.7363283 53.7504622,19.6807603 C54.0255378,20.6626004 54.1857451,21.6333823 54.1857451,22.0475162 C54.1857451,22.6953952 53.6586782,23.2224622 53.0107991,23.2224622 C52.3629201,23.2224622 51.8358531,22.6953952 51.8358531,22.0475162 C51.8358531,21.6366998 51.9964752,20.663568 52.2715508,19.6808985 Z M38.2009503,24.9251663 C39.5278099,23.5983067 41.353676,22.9328726 43.0995076,23.1060734 C43.2729849,24.851905 42.6072743,26.6776328 41.2804147,28.0046307 C40.3403197,28.9448639 39.1493391,29.5505832 37.9141253,29.763594 L40.4767516,27.2009676 C40.8816242,26.796095 40.8816242,26.1396458 40.4767516,25.7349114 C40.0717408,25.3300389 39.4154298,25.3300389 39.0105572,25.7349114 L36.4393607,28.306108 C36.6501598,27.0656415 37.2571231,25.8691317 38.2009503,24.9251663 Z M30.825054,12.0950324 C30.825054,11.4471533 31.352121,10.9200864 32,10.9200864 C32.647879,10.9200864 33.174946,11.4471533 33.174946,12.0950324 C33.174946,12.7429114 32.647879,13.2699784 32,13.2699784 C31.352121,13.2699784 30.825054,12.7429114 30.825054,12.0950324 Z M40.6789806,17.1058315 C40.3551102,17.6669028 39.6352138,17.8600086 39.0740043,17.536 C38.5434816,17.2296847 36.2951879,15.5654082 34.6201296,14.012406 C34.7579438,13.8245529 34.8758531,13.6213564 34.9712311,13.4059957 C37.1535896,14.0801382 39.7193952,15.1952311 40.2489503,15.5009935 C40.8098834,15.8247257 41.002851,16.5447603 40.6789806,17.1058315 Z M39.0740043,6.65420302 C39.6349374,6.33047084 40.3549719,6.52316199 40.6789806,7.08423326 C41.002851,7.64530454 40.8098834,8.36533909 40.2489503,8.68934773 C39.7193952,8.99511015 37.1535896,10.110203 34.9712311,10.7843456 C34.8758531,10.5689849 34.7579438,10.3657883 34.6201296,10.1779352 C36.2951879,8.62465659 38.5433434,6.96051836 39.0740043,6.65420302 Z M32,2.07343413 C32.647879,2.07343413 33.174946,2.60050108 33.174946,3.24838013 C33.174946,3.86087257 32.857987,6.63899784 32.3506868,8.86586609 C32.2354039,8.85342549 32.1184622,8.84665227 32,8.84665227 C31.8815378,8.84665227 31.7647343,8.85342549 31.6494514,8.86586609 C31.1421512,6.63885961 30.825054,3.85976674 30.825054,3.24838013 C30.825054,2.60050108 31.352121,2.07343413 32,2.07343413 Z M23.3210194,7.08423326 C23.6450281,6.52330022 24.3649244,6.33019438 24.9259957,6.65406479 C25.4565184,6.96038013 27.7048121,8.62465659 29.3798704,10.1776587 C29.2420562,10.3655119 29.1241469,10.5687084 29.0287689,10.7840691 C26.8464104,10.1099266 24.2806048,8.99483369 23.7510497,8.68907127 C23.1901166,8.36533909 22.997149,7.64530454 23.3210194,7.08423326 Z M24.9259957,17.5358618 C24.3653391,17.8598704 23.6450281,17.6669028 23.3210194,17.1058315 C22.997149,16.5447603 23.1901166,15.8247257 23.7510497,15.5007171 C24.2806048,15.1949546 26.8464104,14.0798618 29.0287689,13.4057192 C29.1241469,13.6210799 29.2420562,13.8242765 29.3798704,14.0121296 C27.7048121,15.5654082 25.4566566,17.2295464 24.9259957,17.5358618 Z M31.6493132,15.3241987 C31.7645961,15.3366393 31.8815378,15.3434125 32,15.3434125 C32.1184622,15.3434125 32.2352657,15.3366393 32.3505486,15.3241987 C32.8578488,17.5512052 33.174946,20.3302981 33.174946,20.9416847 C33.174946,21.5895637 32.647879,22.1166307 32,22.1166307 C31.352121,22.1166307 30.825054,21.5895637 30.825054,20.9416847 C30.825054,20.3291922 31.142013,17.551067 31.6493132,15.3241987 Z M22.7194471,28.0046307 C21.3924492,26.6776328 20.7268769,24.851905 20.9003542,23.1060734 C22.6461857,22.9330108 24.4720518,23.5984449 25.7989114,24.9251663 C26.7427387,25.8691317 27.3498402,27.0656415 27.5606393,28.3059698 L24.9894428,25.7347732 C24.584432,25.3299006 23.928121,25.3299006 23.5232484,25.7347732 C23.1183758,26.1396458 23.1183758,26.796095 23.5232484,27.2008294 L26.086013,29.763594 C24.8505227,29.5507214 23.6595421,28.9447257 22.7194471,28.0046307 Z M13.9034816,29.3849849 C14.3386263,28.9498402 14.8995594,28.6845788 15.4692009,28.6258315 C15.4103153,29.195473 15.1451922,29.756406 14.7099093,30.191689 C14.2747646,30.6268337 13.7138315,30.892095 13.1441901,30.9508423 C13.2030756,30.3812009 13.4681987,29.8201296 13.9034816,29.3849849 Z M7.26835421,30.1915508 C6.8332095,29.756406 6.56808639,29.195473 6.50920086,28.6258315 C7.07884233,28.6845788 7.63977538,28.9497019 8.07505832,29.3849849 C8.51020302,29.8201296 8.77532613,30.3810626 8.83421166,30.9507041 C8.26457019,30.8919568 7.70363715,30.6268337 7.26835421,30.1915508 Z M9.81425486,16.5183585 C9.81425486,15.8704795 10.3413218,15.3434125 10.9892009,15.3434125 C11.6370799,15.3434125 12.1641469,15.8704795 12.1641469,16.5183585 C12.1641469,17.1662376 11.6370799,17.6933045 10.9892009,17.6933045 C10.3413218,17.6933045 9.81425486,17.1662376 9.81425486,16.5183585 Z M17.6933045,16.5183585 C17.6933045,17.1662376 17.1662376,17.6933045 16.5183585,17.6933045 C16.1076803,17.6933045 15.1345486,17.5326825 14.1517408,17.2576069 C14.2073089,17.0199914 14.237581,16.7726998 14.237581,16.5183585 C14.237581,16.263879 14.2071706,16.0164492 14.1516026,15.7786955 C15.1334428,15.5036199 16.1040864,15.3434125 16.5183585,15.3434125 C17.1662376,15.3434125 17.6933045,15.8704795 17.6933045,16.5183585 Z M10.9892009,9.81425486 C11.6370799,9.81425486 12.1641469,10.3413218 12.1641469,10.9892009 C12.1641469,11.4000173 12.0035248,12.373149 11.7284492,13.3558186 C11.4908337,13.3002505 11.2435421,13.2699784 10.9892009,13.2699784 C10.7347214,13.2699784 10.4872916,13.3003888 10.2495378,13.3559568 C9.9744622,12.3741166 9.81425486,11.4033348 9.81425486,10.9892009 C9.81425486,10.3413218 10.3413218,9.81425486 10.9892009,9.81425486 Z M4.28509719,16.5183585 C4.28509719,15.8704795 4.81216415,15.3434125 5.4600432,15.3434125 C5.87072138,15.3434125 6.84385313,15.5040346 7.82666091,15.7791102 C7.77109287,16.0167257 7.74082073,16.2640173 7.74082073,16.5183585 C7.74082073,16.772838 7.7712311,17.0202678 7.82679914,17.2580216 C6.84509719,17.5330972 5.87431533,17.6933045 5.4600432,17.6933045 C4.81216415,17.6933045 4.28509719,17.1662376 4.28509719,16.5183585 Z M10.2499525,19.6808985 C10.487568,19.7364665 10.7348596,19.7667387 10.9892009,19.7667387 C11.2436803,19.7667387 11.4911102,19.7363283 11.7288639,19.6807603 C12.0039395,20.6626004 12.1641469,21.6333823 12.1641469,22.0475162 C12.1641469,22.6953952 11.6370799,23.2224622 10.9892009,23.2224622 C10.3413218,23.2224622 9.81425486,22.6953952 9.81425486,22.0475162 C9.81425486,21.6366998 9.97487689,20.663568 10.2499525,19.6808985 Z M56.3282937,61.9265659 L7.67170626,61.9265659 C7.6336933,61.9265659 7.60259179,61.8956026 7.60259179,61.8574514 L7.60259179,59.5766739 L56.3974082,59.5766739 L56.3974082,61.8574514 C56.3974082,61.8956026 56.3663067,61.9265659 56.3282937,61.9265659 Z M57.5766393,57.5032397 L6.42336069,57.5032397 C5.80699784,57.5032397 5.2919568,57.0215119 5.25104104,56.4063931 L4.35656156,42.9892009 L59.6435767,42.9892009 L58.7490972,56.4063931 C58.7080432,57.0215119 58.1930022,57.5032397 57.5766393,57.5032397 Z M60.7516199,40.9157667 L3.24838013,40.9157667 C2.60050108,40.9157667 2.07343413,40.3886998 2.07343413,39.7408207 C2.07343413,39.0929417 2.60050108,38.5658747 3.24838013,38.5658747 L60.7516199,38.5658747 C61.3994989,38.5658747 61.9265659,39.0929417 61.9265659,39.7408207 C61.9265659,40.3886998 61.3994989,40.9157667 60.7516199,40.9157667 Z" id="Shape"></path>
                        </g>
                    </g>
                </g>
            </g>
        </g>
    </g>
</svg>