<?xml version="1.0" encoding="UTF-8"?>
<svg width="49px" height="61px" viewBox="0 0 49 61" version="1.1" xmlns="http://www.w3.org/2000/svg" xmlns:xlink="http://www.w3.org/1999/xlink">
    <!-- Generator: Sketch 41.2 (35397) - http://www.bohemiancoding.com/sketch -->
    <title>Capa_1</title>
    <desc>Created with Sketch.</desc>
    <defs></defs>
    <g id="Page-1" stroke="none" stroke-width="1" fill="none" fill-rule="evenodd">
        <g id="Large-Devices-(-≥-1200px-)" transform="translate(-950.000000, -860.000000)" fill="#000000">
            <g id="Tabs" transform="translate(112.000000, 820.000000)">
                <g id="coffee-shop" transform="translate(780.000000, 40.000000)">
                    <g id="sprout" transform="translate(58.000000, 0.000000)">
                        <g id="Capa_1">
                            <path d="M48.0001603,59.0213866 L44.1101196,59.0213866 C39.5588451,55.1736436 32.8687473,52.9021512 25.564019,52.7120367 L25.564019,46.8819914 L30.161231,42.3332095 C31.0022201,42.4878834 31.8541277,42.5648251 32.7076332,42.5648251 C36.6402826,42.5648251 40.5919728,40.9557689 43.5315734,38.0471361 C47.2483832,34.3694816 48.8649837,29.0919935 47.7507663,24.274311 C47.6652826,23.9047538 47.3735462,23.6160907 47.0000543,23.5315076 C42.1310788,22.4290281 36.7974022,24.02873 33.0805924,27.7062527 C29.5029266,31.2460972 27.8723451,36.2681231 28.7488859,40.9358747 L25.564019,44.0871901 L25.564019,25.8672937 L28.5634049,22.8995054 C29.1430163,22.9973952 29.7292853,23.0456156 30.316087,23.0456156 C33.2457011,23.0456156 36.1876984,21.84854 38.3752554,19.6838963 C41.1418913,16.9465378 42.3446549,13.0153974 41.5141848,9.42469762 C41.4287011,9.05500864 41.1369647,8.76647732 40.7634728,8.68189417 C37.1345435,7.86043629 33.1616821,9.05026566 30.3950462,11.7877559 C27.7668886,14.3882268 26.5513424,18.065486 27.1479973,21.5050691 L25.564019,23.0723607 L25.564019,21.1613348 C25.564019,18.110676 24.373106,15.2419633 22.2111141,13.0716544 C22.8047065,9.63417927 21.5890272,5.96021382 18.9627337,3.36158747 C16.1960978,0.624097192 12.2235027,-0.565863931 8.59417391,0.255725702 C8.22068207,0.340308855 7.92894565,0.628971922 7.84346196,0.998529158 C7.01299185,4.58909719 8.21575543,8.52023758 10.9823913,11.2577279 C13.1702147,13.4225032 16.1118125,14.6194471 19.0415598,14.6194471 C19.630625,14.6194471 20.2194239,14.5706998 20.8014321,14.4720194 C22.5843397,16.2686868 23.5666033,18.6400454 23.5666033,21.1614665 L23.5666033,35.6550929 L20.3817364,32.5037775 C21.2582772,27.8361577 19.6275625,22.8141317 16.0500299,19.2741555 C12.3332201,15.5963693 6.99941033,13.9966674 2.13056793,15.0994104 C1.75707609,15.1839935 1.46533967,15.4726566 1.37985598,15.8422138 C0.265638587,20.6598963 1.88223913,25.9373844 5.59904891,29.6150389 C8.53891576,32.5239352 12.4900734,34.1327279 16.4229891,34.1327279 C17.2762283,34.1327279 18.1284022,34.0556544 18.9693913,33.9009806 L23.5667364,38.4498942 L23.5667364,52.711905 C16.2620082,52.9020194 9.57191033,55.1735119 5.02063587,59.0212549 L1.13059511,59.0212549 C0.579078804,59.0212549 0.131953804,59.4636695 0.131953804,60.0093758 C0.131953804,60.5550821 0.579078804,60.9974968 1.13059511,60.9974968 L48.0001603,60.9974968 C48.5516766,60.9974968 48.9988016,60.5550821 48.9988016,60.0093758 C48.9988016,59.4636695 48.5516766,59.0213866 48.0001603,59.0213866 Z M34.4929375,29.1035875 C37.5682201,26.0608337 41.8972636,24.6483477 45.9291114,25.3339719 C46.6223016,29.3237408 45.194644,33.606784 42.1193614,36.6496695 C39.3637772,39.3760929 35.601962,40.7925313 31.9487989,40.564473 L41.271981,31.3395076 C41.6619837,30.9536134 41.6619837,30.3279352 41.271981,29.9421728 C40.8819783,29.5562786 40.2496386,29.5562786 39.859769,29.9421728 L30.536587,39.1671382 C30.3059674,35.5521965 31.7374864,31.8300108 34.4929375,29.1035875 Z M31.8073913,13.1853542 C33.930769,11.0843456 36.8975326,10.0827862 39.6861386,10.490946 C40.0983777,13.2499114 39.0865543,16.1855529 36.9630435,18.2866933 C35.1744103,20.0564838 32.7875245,21.0457905 30.4124891,21.0699006 L36.1565408,15.3863607 C36.5465435,15.0004665 36.5465435,14.3747883 36.1565408,13.9890259 C35.766538,13.6031317 35.1341984,13.6031317 34.7443288,13.9890259 L28.9941522,19.6786263 C29.0154565,17.3249222 30.0156957,14.9581749 31.8073913,13.1853542 Z M9.67177446,2.06464579 C12.4603804,1.65701296 15.4270109,2.65791361 17.5505217,4.759054 C19.3391549,6.52884449 20.3389946,8.89084881 20.3633614,11.2406004 L14.6193098,5.55706048 C14.2293071,5.17116631 13.5969674,5.17116631 13.2070978,5.55706048 C12.8170951,5.94295464 12.8170951,6.56863283 13.2070978,6.95439525 L18.9572745,12.6439957 C16.578644,12.6230475 14.1865652,11.6332138 12.3948696,9.86039309 C10.2713587,7.7592527 9.25953533,4.82361123 9.67177446,2.06464579 Z M7.01139402,28.2177041 C3.93611141,25.1748186 2.50858696,20.8917754 3.20164402,16.9020065 C7.233625,16.2161188 11.5625353,17.6288683 14.6378179,20.671622 C17.393269,23.3980454 18.8246549,27.1202311 18.5941685,30.735041 L9.27098641,21.5100756 C8.8809837,21.1241814 8.24864402,21.1241814 7.85877446,21.5100756 C7.46877174,21.8959698 7.46877174,22.5216479 7.85877446,22.9074104 L17.1819565,32.1323758 C13.5289266,32.3605659 9.76697826,30.9441274 7.01139402,28.2177041 Z M24.5653777,54.6736544 C30.6464375,54.6736544 36.488356,56.2680864 40.7711957,59.0213866 L8.35955978,59.0213866 C12.6423995,56.2679546 18.4843179,54.6736544 24.5653777,54.6736544 Z" id="Shape"></path>
                        </g>
                    </g>
                </g>
            </g>
        </g>
    </g>
</svg>