<?xml version="1.0" encoding="UTF-8"?>
<svg width="77px" height="47px" viewBox="0 0 77 47" version="1.1" xmlns="http://www.w3.org/2000/svg" xmlns:xlink="http://www.w3.org/1999/xlink">
    <!-- Generator: Sketch 41.2 (35397) - http://www.bohemiancoding.com/sketch -->
    <title>Layer_1</title>
    <desc>Created with Sketch.</desc>
    <defs></defs>
    <g id="Page-1" stroke="none" stroke-width="1" fill="none" fill-rule="evenodd">
        <g id="Large-Devices-(-≥-1200px-)" transform="translate(-743.000000, -866.000000)" fill="#000000">
            <g id="Tabs" transform="translate(112.000000, 820.000000)">
                <g id="events" transform="translate(585.000000, 40.000000)">
                    <g id="sprout" transform="translate(46.000000, 6.000000)">
                        <g id="Layer_1">
                            <path d="M33.6934288,5.61452903 C33.073076,5.03400323 32.1046472,5.07099677 31.529924,5.69776452 L31.3316452,5.9138129 C30.756922,6.54027742 30.793846,7.51863548 31.4140487,8.09916129 C31.7086901,8.37494516 32.0819825,8.51124516 32.4542242,8.51124516 C32.8656413,8.51124516 33.2757076,8.34477419 33.5774035,8.01592581 L33.7756823,7.79987742 C34.3504055,7.1734129 34.3134815,6.19505484 33.6934288,5.61452903 Z" id="Shape"></path>
                            <path d="M75.3190585,14.5789452 L58.9218109,14.5789452 C58.076462,14.5789452 57.3909669,15.2712097 57.3909669,16.1252452 L57.3909669,17.482029 L53.0932261,17.4797548 L53.0842203,17.4797548 C50.2727446,17.4797548 47.5666374,17.9873548 45.0424483,18.9881516 L44.9989201,19.0052839 C44.9761053,19.0143806 44.9534405,19.0237806 44.9312261,19.0340903 L33.5002534,24.2093968 C31.6611092,21.6218194 28.8235166,19.9035903 25.7146979,19.4745258 L25.7146979,16.9025645 L27.8444308,16.9025645 C34.1480741,16.9025645 39.2764542,11.7224065 39.2764542,5.35511935 L39.2764542,1.65743226 C39.2764542,0.803396774 38.5909591,0.111132258 37.7456101,0.111132258 L34.0850331,0.111132258 C29.8578382,0.111132258 26.1619883,2.44233226 24.1840039,5.89713548 C22.2060195,2.44233226 18.5101696,0.111132258 14.2829747,0.111132258 L10.6217973,0.111132258 C9.77644834,0.111132258 9.09095322,0.803396774 9.09095322,1.65743226 L9.09095322,5.35511935 C9.09095322,11.7222548 14.2191832,16.9025645 20.5229766,16.9025645 L22.6527096,16.9025645 L22.6527096,19.4705839 C19.1844074,19.9342161 16.1344269,21.9597645 14.334308,25.0265903 C10.2852788,25.5664839 6.76249123,28.2883903 5.21063353,32.1513355 C4.84034308,33.0732935 4.80702144,34.0812161 5.09085575,35.0087839 C2.23164912,35.4013097 0.0130584795,37.9001935 2.42812362e-14,40.9263871 C-0.0141091618,44.1998613 2.61094542,46.8746161 5.85154971,46.8890194 L5.85875439,46.8890194 L5.87166277,46.8890194 L19.2636589,46.7710645 C23.8209181,46.7413484 28.2520955,45.7986194 32.4341111,43.9691065 L53.276345,34.8509548 C53.2967583,34.8420097 53.3168713,34.8327613 53.3369844,34.8227548 C54.4526589,34.275129 55.56323,33.9167161 56.6392788,33.7563097 L57.3909669,33.7563097 L57.3909669,39.7274323 C57.3909669,40.5814677 58.076462,41.2737323 58.9218109,41.2737323 L75.3192086,41.2737323 L75.3192086,41.2735806 C76.1645575,41.2735806 76.8500526,40.5813161 76.8500526,39.7272806 L76.8500526,16.1252452 C76.8499025,15.2712097 76.1644074,14.5789452 75.3190585,14.5789452 Z M34.0845828,3.20373226 L36.2143158,3.20373226 L36.2143158,5.55875899 C36.2143158,10.6619808 32.4594776,14.8137319 27.8441306,14.8137319 L27.8313723,14.8137319 L30.321039,12.0665327 C30.9194776,11.4061626 30.9205283,10.3343682 30.3232904,9.67267038 C29.7260526,9.0109726 28.7565731,9.00981085 28.1582846,9.67034689 L25.7161988,12.3651016 C25.7624288,7.30486444 29.4976043,3.20373226 34.0845828,3.20373226 Z M14.6317517,7.84372067 L20.5412014,13.8137319 L20.524687,13.8137319 C15.9083141,13.8140353 12.1526413,10.0196253 12.1526413,5.35597584 L12.1526413,3.20373226 L14.2828476,3.20373226 C18.8693445,3.20373226 22.6042992,6.94930345 22.6526413,11.5715461 L16.7973889,5.65613722 C16.1992677,5.05202262 15.230023,5.05202262 14.6317517,5.65613722 C14.0337806,6.26010015 14.0337806,7.23960607 14.6317517,7.84372067 Z M8.04777583,33.3139032 C9.26581676,30.2813419 12.1403333,28.2084903 15.370731,28.0329226 C15.9218889,28.0030548 16.4142086,27.6757226 16.659768,27.1764613 C18.0892963,24.2679194 20.9722183,22.4613 24.1835536,22.4613 C26.6787739,22.4613 29.0455107,23.6035516 30.627538,25.5097806 L24.0403606,28.4920065 C22.5908694,29.0397839 21.4336179,30.1191161 20.7770916,31.537 C20.2763665,32.6184548 20.1121598,33.7993677 20.2901754,34.9532935 L9.16840351,34.9532935 C8.5884269,34.9532935 8.27337232,34.5748677 8.16485185,34.4121871 C8.06023392,34.2551161 7.83884016,33.833329 8.04777583,33.3139032 Z M57.3909669,30.6635581 L56.5312086,30.6635581 C56.4618635,30.6635581 56.3926686,30.6684097 56.323924,30.6778097 C54.9058031,30.8735419 53.4614152,31.3271677 52.0296355,32.0259516 L31.2171209,41.1310645 C27.415152,42.7942581 23.3868363,43.6513258 19.2405439,43.6783129 L5.85620273,43.7962677 C4.30794737,43.7844419 3.05523392,42.5049806 3.06183821,40.939729 C3.06859259,39.3684129 4.35732943,38.0458935 5.88487135,38.0458935 L5.89627875,38.0458935 L21.7937018,38.0458935 L21.7937018,38.0460452 C22.8958674,39.2245323 24.442922,39.9086097 26.064425,39.9086097 C26.6289415,39.9086097 27.2027641,39.8256774 27.7695322,39.6522323 C27.8298713,39.6337355 27.8887096,39.6116 27.946347,39.5856742 L40.4965965,33.9571968 C41.2694483,33.6106097 41.6176745,32.6969903 41.2745517,31.9163355 C40.9315789,31.1361355 40.0270916,30.7840903 39.2542398,31.1305258 L26.7996023,36.7162484 C25.4214074,37.0936129 23.9816725,36.3620806 23.4536296,35.0200032 C23.1980136,34.3062097 23.2320858,33.5348032 23.5504425,32.8470871 C23.8689493,32.1589161 24.4339162,31.6372161 25.1408752,31.3782613 C25.1759981,31.3653742 25.2108207,31.3512742 25.2450429,31.3358097 L46.1497173,21.8715258 L46.1597739,21.8674323 C48.3273314,21.0080903 50.656694,20.5723548 53.08377,20.5723548 L53.0917251,20.5723548 L57.3908168,20.5744774 L57.3908168,30.6635581 L57.3909669,30.6635581 Z M63.6765984,38.1809806 L60.4525049,38.1809806 L60.4525049,17.6715452 L63.6765984,17.6715452 L63.6765984,38.1809806 Z M73.7882144,38.1809806 L66.7382865,38.1809806 L66.7382865,17.6715452 L73.7882144,17.6715452 L73.7882144,38.1809806 Z" id="Shape"></path>
                        </g>
                    </g>
                </g>
            </g>
        </g>
    </g>
</svg>