<?xml version="1.0" encoding="UTF-8"?>
<svg width="156px" height="33px" viewBox="0 0 156 33" version="1.1" xmlns="http://www.w3.org/2000/svg" xmlns:xlink="http://www.w3.org/1999/xlink">
    <!-- Generator: Sketch 41.2 (35397) - http://www.bohemiancoding.com/sketch -->
    <title>Group 3</title>
    <desc>Created with Sketch.</desc>
    <defs></defs>
    <g id="Page-1" stroke="none" stroke-width="1" fill="none" fill-rule="evenodd">
        <g id="Large-Devices-(-≥-1200px-)" transform="translate(-643.000000, -192.000000)">
            <g id="Logo" transform="translate(397.000000, 192.000000)">
                <g id="Group-3" transform="translate(246.000000, 0.000000)">
                    <path d="M0.5,31.5 L154.529221,31.5" id="Line" stroke="#FFFFFF" stroke-linecap="square"></path>
                    <g id="Layer_1" transform="translate(57.000000, 0.000000)" fill="#FFFFFF">
                        <path d="M40.9164785,22.2534094 L34.2847285,1.50319038 C33.9977285,0.606382388 33.0595332,0.00381962605 31.9497305,0.00381962605 C30.840168,0.00381962605 29.9018125,0.606382388 29.6148125,1.50339141 L24.1733438,18.5285369 C23.7544551,18.3275039 23.3041758,18.1678838 22.829793,18.0561094 C23.4606484,16.8238445 23.7914512,15.4875785 23.7914512,14.1353638 C23.7914512,8.64656119 18.4552852,4.18121731 11.8962461,4.18121731 C5.33656641,4.18121731 0,8.6466282 0,14.1353638 C0,19.3616174 4.83840039,23.6599029 10.9640566,24.0590873 L10.9640566,30.4678838 L7.8840918,30.4678838 C7.36950977,30.4678838 6.95230273,30.817011 6.95230273,31.2476236 C6.95230273,31.6782361 7.36958984,32.0273634 7.8840918,32.0273634 L33.5634648,32.0273634 C34.0780469,32.0273634 34.4952539,31.6782361 34.4952539,31.2476236 C34.4952539,30.817011 34.0779668,30.4678838 33.5634648,30.4678838 L32.535582,30.4678838 L32.535582,24.7986206 L38.5822012,24.7986206 C39.3394199,24.7986206 40.0380215,24.5103393 40.4991113,24.0076899 C40.9601211,23.5050405 41.1122695,22.8656217 40.9164785,22.2534094 Z M11.8958457,11.3647277 C11.3812637,11.3647277 10.9640566,11.7138549 10.9640566,12.1444675 L10.9640566,16.528259 L10.9640566,16.5290632 L10.9640566,17.9651085 L8.72595313,16.0922856 C8.36199805,15.7877877 7.77214258,15.7877877 7.40810742,16.0922856 C7.04423242,16.3967835 7.04423242,16.8905204 7.40810742,17.1950183 L10.9639766,20.170641 L10.9639766,22.4933757 C5.86756445,22.098681 1.8636582,18.5011964 1.8636582,14.1353638 C1.8636582,9.50658015 6.36428906,5.74076393 11.8962461,5.74076393 C17.4276426,5.74076393 21.927793,9.50658015 21.927793,14.1353638 C21.927793,15.4374542 21.5650391,16.7215187 20.8766875,17.87652 C18.0754746,18.0067223 15.7843594,19.7593276 15.3235898,22.0272473 C14.5180039,22.2725745 13.6828691,22.4284421 12.8276348,22.4939788 L12.8276348,19.8481172 L12.8276348,19.847313 L12.8276348,16.851654 L15.42625,14.6770806 C15.790125,14.3725827 15.790125,13.8788458 15.42625,13.5743479 C15.0622949,13.26985 14.4724395,13.26985 14.1084043,13.5743479 L12.8276348,14.6461215 L12.8276348,12.1444005 C12.8276348,11.7137879 12.4103477,11.3647277 11.8958457,11.3647277 Z M20.372916,30.4679508 L12.8274746,30.4679508 L12.8274746,24.0593554 L12.8275547,24.0593554 C13.6749414,24.0046744 14.5064727,23.8747401 15.3156621,23.6714288 C15.7324687,25.8191308 17.7895156,27.5114262 20.3728359,27.8165272 L20.3728359,30.4679508 L20.372916,30.4679508 Z M21.2116543,21.1816357 C20.7484824,21.1816357 20.3729961,21.4957832 20.3729961,21.8834417 L20.3729961,23.1186552 L20.0437949,22.8431731 C19.7161953,22.5690981 19.1853574,22.5690981 18.8576777,22.8431731 C18.5301582,23.117248 18.5301582,23.5615308 18.8576777,23.8356727 L20.3729961,25.1037216 L20.3729961,26.235202 C18.5073359,25.9102658 17.1011641,24.5238755 17.1011641,22.867565 C17.1011641,20.9708862 18.945123,19.4278243 21.2116543,19.4278243 C21.2761973,19.4278243 21.420418,19.432582 21.4285059,19.4326491 C23.5946992,19.5273356 25.3221445,21.0317992 25.3221445,22.867565 C25.3221445,24.5238085 23.9159727,25.9101987 22.0503125,26.235202 L22.0503125,24.813296 L22.0503125,24.8124918 L22.0503125,21.8834417 C22.0503125,21.4958502 21.6749063,21.1816357 21.2116543,21.1816357 Z M30.6720039,30.4679508 L30.6720039,30.4679508 L22.0503125,30.4679508 L22.0503125,27.8165272 C24.161252,27.5671793 25.921209,26.3920747 26.72175,24.7985535 L30.672084,24.7985535 L30.672084,30.4679508 L30.6720039,30.4679508 Z M39.0208691,23.0580773 C38.9588887,23.1256914 38.8194727,23.2390069 38.5822812,23.2390069 L32.5356621,23.2390069 L32.5356621,21.3452765 L32.5356621,21.3444724 L32.5356621,18.9709434 L34.5960723,17.2467508 C34.9599473,16.9422529 34.9599473,16.448516 34.5960723,16.143951 C34.2321172,15.8394531 33.6422617,15.8394531 33.2782266,16.143951 L32.535582,16.7654109 L32.535582,14.5950592 C32.535582,14.1643796 32.1182949,13.8153194 31.603793,13.8153194 C31.0892109,13.8153194 30.6720039,14.1644466 30.6720039,14.5950592 L30.6720039,18.6476154 L30.6720039,18.6484195 L30.6720039,19.4624019 L29.1516406,18.1900644 C28.7877656,17.8855665 28.1979102,17.8855665 27.8337949,18.1900644 C27.4699199,18.4945623 27.4699199,18.9882992 27.8337949,19.2927971 L30.6720039,21.6678674 L30.6720039,23.2390069 L27.1674648,23.2390069 C27.1782754,23.1161758 27.1857227,22.9926075 27.1857227,22.867431 C27.1857227,21.6304083 26.644875,20.4978556 25.7522441,19.6240324 L31.4150488,1.90652948 C31.5141055,1.59673771 31.8220059,1.56329923 31.9496504,1.56329923 C32.077375,1.56329923 32.3852754,1.59673771 32.484332,1.90632845 L39.116082,22.6564134 C39.1776621,22.8483999 39.0827695,22.9904632 39.0208691,23.0580773 Z" id="Shape"></path>
                        <path d="M38.6638809,30.4679508 L37.1791523,30.4679508 C36.6645703,30.4679508 36.2473633,30.817011 36.2473633,31.2476906 C36.2473633,31.6783702 36.6646504,32.0274304 37.1791523,32.0274304 L38.6638809,32.0274304 C39.1784629,32.0274304 39.5956699,31.6783032 39.5956699,31.2476906 C39.5956699,30.817011 39.1783828,30.4679508 38.6638809,30.4679508 Z" id="Shape"></path>
                        <path d="M23.9832383,6.20622221 C23.7742344,5.98374575 23.5537793,5.76448581 23.3278789,5.55447339 C22.9837031,5.2342279 22.3944883,5.20822764 22.0119551,5.49617384 C21.6293418,5.78418704 21.5982715,6.27725386 21.9423672,6.59743234 C22.1407207,6.78198058 22.3345898,6.97483819 22.5185293,7.17037624 C22.7023887,7.36591429 22.9754551,7.46810604 23.2514844,7.46810604 C23.4531211,7.46810604 23.6562793,7.41362611 23.8270059,7.30118168 C24.2314805,7.03488003 24.3014687,6.54462768 23.9832383,6.20622221 Z" id="Shape"></path>
                        <path d="M20.5680664,3.53161284 C17.9978789,2.05817534 15.0030371,1.27957473 11.9056152,1.27957473 L11.8954453,1.27957473 C11.3809434,1.27977576 10.9638965,1.62923804 10.9642969,2.0597836 C10.9645371,2.49032917 11.3816641,2.83905433 11.8960059,2.83905433 C11.8989688,2.83918835 11.902332,2.83905433 11.9056152,2.83905433 C14.6253086,2.83905433 17.2563555,3.52330348 19.5148789,4.8180897 C19.675916,4.91043083 19.8590547,4.95459107 20.0406719,4.95459107 C20.3377617,4.95459107 20.6296465,4.83598163 20.8102227,4.61544848 C21.1010664,4.26029027 20.9927207,3.77492972 20.5680664,3.53161284 Z" id="Shape"></path>
                    </g>
                </g>
            </g>
        </g>
    </g>
</svg>